<?xml version="1.0" standalone="no"?>
<!DOCTYPE svg PUBLIC "-//W3C//DTD SVG 1.1//EN"
  "http://www.w3.org/Graphics/SVG/1.1/DTD/svg11.dtd">
<svg width="302mm" height="152mm" viewBox="-165 -109 302 152" xmlns="http://www.w3.org/2000/svg" version="1.1">
	<title>svgOutput</title>
	<desc>made with tinkercad</desc>
<path d="M -164 -108 L -145 -108 L -5 -108 L 25.99799919128418 -108 L 31.99799919128418 -108 L 46.999000549316406 -108 L 78 -108 L 93.0009994506836 -108 L 98.0009994506836 -108 L 107.00199890136719 -108 L 112.00199890136719 -108 L 116.00199890136719 -108 L 117.50199890136719 -108 L 136 -108 L 136 -43 L 136 -14.99899959564209 L 136 42 L 117.50199890136719 42 L 116.00199890136719 42 L 31.99799919128418 42 L 25.99799919128418 42 L -5 42 L -145 42 L -164 42 L -164 -108 M 107.47899627685547 -74.03199768066406 L 107.7835464477539 -73.72799682617188 L 108.03299713134766 -73.47899627685547 L 108.72899627685547 -73.1240005493164 L 109.50199890136719 -73.00199890136719 L 110.2750015258789 -73.1240005493164 L 110.97200012207031 -73.47899627685547 L 111.22100067138672 -73.72799682617188 L 111.5250015258789 -74.03199768066406 L 111.87999725341797 -74.72899627685547 L 112.00199890136719 -75.50199890136719 L 111.87999725341797 -76.27400207519531 L 111.5250015258789 -76.97100067138672 L 110.97200012207031 -77.5250015258789 L 110.59200286865234 -77.71854400634766 L 110.2750015258789 -77.87999725341797 L 109.50199890136719 -78.00199890136719 L 108.72899627685547 -77.87999725341797 L 108.03299713134766 -77.5250015258789 L 107.47899627685547 -76.97100067138672 L 107.1240005493164 -76.27400207519531 L 107.00199890136719 -75.50199890136719 L 107.1240005493164 -74.72899627685547 L 107.47899627685547 -74.03199768066406 M 32.3650016784668 -24.816999435424805 L 31.99799919128418 -22.499000549316406 L 32.3650016784668 -20.180999755859375 L 32.768001556396484 -19.39013671875 L 33.43000030517578 -18.090999603271484 L 35.09000015258789 -16.430999755859375 L 35.18223571777344 -16.384000778198242 L 37.18000030517578 -15.366000175476074 L 39.49800109863281 -14.99899959564209 L 41.816001892089844 -15.366000175476074 L 43.814720153808594 -16.384000778198242 L 43.90700149536133 -16.430999755859375 L 45.566001892089844 -18.090999603271484 L 46.63199996948242 -20.180999755859375 L 46.999000549316406 -22.499000549316406 L 46.63199996948242 -24.816999435424805 L 45.566001892089844 -26.908000946044922 L 43.90700149536133 -28.566999435424805 L 41.816001892089844 -29.631999969482422 L 40.959999084472656 -29.76789665222168 L 39.49800109863281 -30 L 37.18000030517578 -29.631999969482422 L 35.09000015258789 -28.566999435424805 L 33.43000030517578 -26.908000946044922 L 32.768001556396484 -25.60824203491211 L 32.3650016784668 -24.816999435424805 M 87.81900024414062 -57.63399887084961 L 85.5009994506836 -58.000999450683594 L 83.18299865722656 -57.63399887084961 L 81.09200286865234 -56.569000244140625 L 79.43299865722656 -54.909000396728516 L 78.36699676513672 -52.81800079345703 L 78 -50.500999450683594 L 78.21358489990234 -49.152000427246094 L 78.36699676513672 -48.18299865722656 L 79.43299865722656 -46.09199905395508 L 81.09200286865234 -44.43299865722656 L 83.18299865722656 -43.367000579833984 L 85.5009994506836 -43 L 87.81900024414062 -43.367000579833984 L 89.90899658203125 -44.43299865722656 L 91.56900024414062 -46.09199905395508 L 92.63400268554688 -48.18299865722656 L 92.78741455078125 -49.152000427246094 L 93.0009994506836 -50.500999450683594 L 92.63400268554688 -52.81800079345703 L 91.56900024414062 -54.909000396728516 L 89.90899658203125 -56.569000244140625 L 87.81900024414062 -57.63399887084961 M 46.63199996948242 -48.18299865722656 L 46.78541946411133 -49.152000427246094 L 46.999000549316406 -50.500999450683594 L 46.63199996948242 -52.81800079345703 L 45.566001892089844 -54.909000396728516 L 43.90700149536133 -56.569000244140625 L 41.816001892089844 -57.63399887084961 L 39.49800109863281 -58.000999450683594 L 37.18000030517578 -57.63399887084961 L 35.09000015258789 -56.569000244140625 L 33.43000030517578 -54.909000396728516 L 32.3650016784668 -52.81800079345703 L 31.99799919128418 -50.500999450683594 L 32.21158218383789 -49.152000427246094 L 32.3650016784668 -48.18299865722656 L 33.43000030517578 -46.09199905395508 L 35.09000015258789 -44.43299865722656 L 37.18000030517578 -43.367000579833984 L 39.49800109863281 -43 L 41.816001892089844 -43.367000579833984 L 43.90700149536133 -44.43299865722656 L 45.566001892089844 -46.09199905395508 L 46.63199996948242 -48.18299865722656 M 78.36699676513672 -24.816999435424805 L 78 -22.499000549316406 L 78.36699676513672 -20.180999755859375 L 79.43299865722656 -18.090999603271484 L 81.09200286865234 -16.430999755859375 L 81.18428039550781 -16.384000778198242 L 83.18299865722656 -15.366000175476074 L 85.5009994506836 -14.99899959564209 L 87.81900024414062 -15.366000175476074 L 89.81676483154297 -16.384000778198242 L 89.90899658203125 -16.430999755859375 L 91.56900024414062 -18.090999603271484 L 92.63400268554688 -20.180999755859375 L 93.0009994506836 -22.499000549316406 L 92.63400268554688 -24.816999435424805 L 91.56900024414062 -26.908000946044922 L 89.90899658203125 -28.566999435424805 L 87.81900024414062 -29.631999969482422 L 85.5009994506836 -30 L 83.18299865722656 -29.631999969482422 L 81.91999816894531 -28.98872184753418 L 81.09200286865234 -28.566999435424805 L 79.43299865722656 -26.908000946044922 L 78.36699676513672 -24.816999435424805 M 117.50199890136719 -14.99899959564209 L 117.50199890136719 -43 L 117.50199890136719 -54.000999450683594 L 116.00199890136719 -54.000999450683594 L 116.00199890136719 -43 L 116.00199890136719 -14.99899959564209 L 116.00199890136719 9.001999855041504 L 117.50199890136719 9.001999855041504 L 117.50199890136719 -14.99899959564209 M 31.99799919128418 -88.00199890136719 L 25.99799919128418 -88.00199890136719 L 25.99799919128418 -64.0009994506836 L 31.99799919128418 -64.0009994506836 L 46.999000549316406 -64.0009994506836 L 78 -64.0009994506836 L 93.0009994506836 -64.0009994506836 L 98.0009994506836 -64.0009994506836 L 98.0009994506836 -88.00199890136719 L 93.0009994506836 -88.00199890136719 L 78 -88.00199890136719 L 46.999000549316406 -88.00199890136719 L 31.99799919128418 -88.00199890136719 M -145 -93 L -5 7 L -145 -93 z" fill="none" stroke="rgb(0,0,255)" stroke-width="0.01mm" />
</svg>